<svg xmlns="http://www.w3.org/2000/svg" width="22.08" height="25.888" viewBox="0 0 22.08 25.888">
  <g id="Group_87" data-name="Group 87" transform="translate(-24.612 -367.5)">
    <path id="Subtraction_2" data-name="Subtraction 2" d="M826.673,1201h-8.1a7.456,7.456,0,0,0,.268-.957H826.2l.04-20.087H810.759v11.079a7.53,7.53,0,0,0-.957.157v-11.715a.478.478,0,0,1,.478-.478h16.434a.479.479,0,0,1,.479.479l-.041,21.044A.478.478,0,0,1,826.673,1201Zm-3.126-1.62a.478.478,0,0,1-.34-.141l-2.186-2.206c-.077.006-.144.009-.2.009s-.133,0-.207-.01L819,1198.649c0-.052,0-.1,0-.148a7.589,7.589,0,0,0-.084-1.124l.666-.667a2.471,2.471,0,0,1-.9-.905l-.129.13a7.491,7.491,0,0,0-.416-.937l.225-.226c-.006-.074-.009-.137-.009-.2a2.467,2.467,0,0,1,4.935,0c0,.067,0,.132-.008.2l2.192,2.211a.477.477,0,0,1,.112.495.482.482,0,0,1-.4.317l-1.041.12-.12,1.04a.477.477,0,0,1-.474.424Zm-.594-3.574h0a2.48,2.48,0,0,1-.905.9l1.138,1.147.049-.429a.475.475,0,0,1,.42-.42l.44-.05-1.142-1.152Zm-2.137-2.743a1.511,1.511,0,1,0,1.511,1.511A1.513,1.513,0,0,0,820.817,1193.063Zm1.194-3.155h-5.044a.478.478,0,0,1,0-.957h5.044a.478.478,0,0,1,0,.957Zm-6.765,0h-.264a.478.478,0,0,1,0-.957h.264a.478.478,0,0,1,0,.957Zm6.765-1.912h-5.044a.478.478,0,0,1,0-.957h5.044a.478.478,0,0,1,0,.957Zm-6.765,0h-.264a.478.478,0,0,1,0-.957h.264a.478.478,0,0,1,0,.957Zm6.765-1.865h-5.044a.478.478,0,0,1,0-.956h5.044a.478.478,0,0,1,0,.956Zm-6.765,0h-.264a.478.478,0,0,1,0-.956h.264a.478.478,0,0,1,0,.956Zm8.87-3.3H812.879a.478.478,0,0,1,0-.957h11.237a.478.478,0,0,1,0,.957Z" transform="translate(-781 -811)" fill="#777" stroke="rgba(0,0,0,0)" stroke-width="1"/>
    <path id="Forma_1" data-name="Forma 1" d="M11.775,5.888a5.888,5.888,0,1,0-9.864,4.337l-.006,0,.191.161.038.029c.1.084.207.164.314.241l.1.075q.171.118.352.224l.079.045c.131.075.265.145.4.21l.03.014a5.835,5.835,0,0,0,1.424.451l.039.007c.155.027.312.048.47.063l.058,0c.158.013.318.021.48.021s.319-.008.476-.021l.06,0q.236-.022.466-.061l.04-.007a5.834,5.834,0,0,0,1.4-.44l.049-.022q.2-.093.388-.2l.094-.054c.115-.068.228-.139.338-.214.04-.027.078-.055.118-.084.094-.068.186-.137.276-.21.02-.016.041-.03.061-.046l.2-.164-.006,0A5.872,5.872,0,0,0,11.775,5.888Zm-11.347,0a5.459,5.459,0,1,1,9.08,4.081,1.6,1.6,0,0,0-.191-.115L7.5,8.948a.475.475,0,0,1-.264-.427V7.888c.042-.052.086-.11.132-.175a4.363,4.363,0,0,0,.56-1.1.777.777,0,0,0,.446-.7V5.153a.779.779,0,0,0-.19-.507v-1a1.727,1.727,0,0,0-.4-1.255,2.41,2.41,0,0,0-1.9-.678,2.41,2.41,0,0,0-1.9.678,1.727,1.727,0,0,0-.4,1.255v1a.78.78,0,0,0-.19.507v.759a.779.779,0,0,0,.287.6,4.023,4.023,0,0,0,.662,1.368V8.5a.478.478,0,0,1-.249.419L2.4,9.846a1.547,1.547,0,0,0-.161.1A5.446,5.446,0,0,1,.428,5.888Z" transform="translate(24.612 381.612)" fill="#777"/>
  </g>
</svg>
