<svg xmlns="http://www.w3.org/2000/svg" width="12.87" height="14.433" viewBox="0 0 12.87 14.433">
  <g id="Group_284" data-name="Group 284" transform="translate(-1050.13 -239.36)">
    <path id="Path_1" data-name="Path 1" d="M13.161,1.563h-.435V1.089a1.058,1.058,0,1,0-2.115,0v.474H9.527V1.089a1.058,1.058,0,1,0-2.115,0v.474H6.327V1.089a1.058,1.058,0,1,0-2.115,0v.474H3.657A1.685,1.685,0,0,0,1.974,3.246v9.5a1.685,1.685,0,0,0,1.683,1.683h9.5a1.685,1.685,0,0,0,1.683-1.683v-9.5A1.685,1.685,0,0,0,13.161,1.563Zm-1.955-.474a.464.464,0,1,1,.927,0V3.028a.464.464,0,1,1-.927,0Zm-3.2,0a.464.464,0,1,1,.927,0V3.028a.464.464,0,1,1-.927,0Zm-3.2,0a.464.464,0,1,1,.927,0V3.028a.464.464,0,1,1-.927,0Zm9.048,11.662a.694.694,0,0,1-.693.693h-9.5a.694.694,0,0,1-.693-.693V4.038h10.89Z" transform="translate(1048.156 239.36)" fill="#777"/>
    <rect id="Rectangle_1" data-name="Rectangle 1" width="1.82" height="1.619" transform="translate(1052.011 245.152)" fill="#777"/>
    <rect id="Rectangle_2" data-name="Rectangle 2" width="1.82" height="1.619" transform="translate(1054.439 245.152)" fill="#777"/>
    <rect id="Rectangle_3" data-name="Rectangle 3" width="1.82" height="1.619" transform="translate(1056.87 245.152)" fill="#777"/>
    <rect id="Rectangle_4" data-name="Rectangle 4" width="1.82" height="1.619" transform="translate(1059.299 245.152)" fill="#777"/>
    <rect id="Rectangle_5" data-name="Rectangle 5" width="1.82" height="1.618" transform="translate(1052.011 247.313)" fill="#777"/>
    <rect id="Rectangle_6" data-name="Rectangle 6" width="1.82" height="1.618" transform="translate(1054.439 247.313)" fill="#777"/>
    <rect id="Rectangle_7" data-name="Rectangle 7" width="1.82" height="1.618" transform="translate(1056.87 247.313)" fill="#777"/>
    <rect id="Rectangle_8" data-name="Rectangle 8" width="1.82" height="1.618" transform="translate(1059.299 247.313)" fill="#777"/>
    <rect id="Rectangle_9" data-name="Rectangle 9" width="1.82" height="1.618" transform="translate(1052.011 249.474)" fill="#777"/>
    <rect id="Rectangle_10" data-name="Rectangle 10" width="1.82" height="1.618" transform="translate(1054.439 249.474)" fill="#777"/>
    <rect id="Rectangle_11" data-name="Rectangle 11" width="1.82" height="1.618" transform="translate(1056.87 249.474)" fill="#777"/>
    <rect id="Rectangle_12" data-name="Rectangle 12" width="1.82" height="1.618" transform="translate(1059.299 249.474)" fill="#777"/>
  </g>
</svg>
