<svg xmlns="http://www.w3.org/2000/svg" width="19.467" height="22.925" viewBox="0 0 19.467 22.925">
  <path id="certificate" d="M12.5,23.623,9.265,18.031,6.029,23.556a.439.439,0,0,1-.385.226.467.467,0,0,1-.384-.226L3.608,20.68H-.012A.465.465,0,0,1-.4,20.454.459.459,0,0,1-.4,20l3.371-5.977a.931.931,0,0,1-.588-.95l.293-2.105L1.256,9.429a.932.932,0,0,1,.022-1.245L2.7,6.691,2.454,4.608A.929.929,0,0,1,3.2,3.589L5.26,3.227,6.278,1.393A.9.9,0,0,1,6.8.963a.885.885,0,0,1,.679.068l1.855.905,1.9-.883h.023a.89.89,0,0,1,1.154.43l1,1.833,2.059.408a.936.936,0,0,1,.724,1l-.294,2.106,1.426,1.539A.933.933,0,0,1,17.3,9.611l-1.426,1.494.249,2.083a.945.945,0,0,1-.521.928L18.948,20a.376.376,0,0,1-.023.453.439.439,0,0,1-.385.226H14.92l-1.651,2.943a.437.437,0,0,1-.384.227A.468.468,0,0,1,12.5,23.623Zm-3.393-7.7.5.883a.366.366,0,0,1,.09.158l3.191,5.524,1.4-2.49a.44.44,0,0,1,.385-.227h3.122l-3.1-5.456-1.357.249L12.318,16.4a.932.932,0,0,1-1.2.363l-1.855-.905ZM.758,19.775H3.88A.466.466,0,0,1,4.264,20l1.4,2.422L8.721,17.1l-.452-.792-.928.43H7.319a.89.89,0,0,1-1.154-.43l-1-1.834-1.29-.226Zm8.914-4.731,1.855.905,1.019-1.833a.914.914,0,0,1,.634-.453l2.036-.339-.248-2.083a.851.851,0,0,1,.248-.748L16.663,9,15.237,7.46a.882.882,0,0,1-.226-.747l.294-2.083-2.059-.408a.844.844,0,0,1-.611-.43l-1-1.878h-.023l-1.877.86a.865.865,0,0,1-.814,0L7.069,1.868,6.052,3.7a.919.919,0,0,1-.634.453L3.36,4.517a.068.068,0,0,0-.023.045l.249,2.06a.849.849,0,0,1-.249.747L1.912,8.863l1.4,1.54a.883.883,0,0,1,.227.747l-.294,2.083,2.082.385a.842.842,0,0,1,.633.429l1,1.879H6.98l1.877-.883a.865.865,0,0,1,.814,0ZM5.283,8.909a3.981,3.981,0,1,1,3.982,3.983A3.994,3.994,0,0,1,5.283,8.909Z" transform="translate(0.455 -0.925)" fill="#777"/>
</svg>
