<svg xmlns="http://www.w3.org/2000/svg" width="10.286" height="10.286" viewBox="0 0 10.286 10.286">
  <path id="Path_11091" data-name="Path 11091" d="M6-6.643v3a.209.209,0,0,1-.06.154.209.209,0,0,1-.154.06H3.643a.209.209,0,0,1-.154-.06.209.209,0,0,1-.06-.154v-.429a.209.209,0,0,1,.06-.154.209.209,0,0,1,.154-.06h1.5V-6.643A.209.209,0,0,1,5.2-6.8a.209.209,0,0,1,.154-.06h.429a.209.209,0,0,1,.154.06A.209.209,0,0,1,6-6.643ZM8.3-2.458a3.561,3.561,0,0,0,.489-1.828A3.561,3.561,0,0,0,8.3-6.114,3.631,3.631,0,0,0,6.971-7.44a3.561,3.561,0,0,0-1.828-.489,3.561,3.561,0,0,0-1.828.489A3.631,3.631,0,0,0,1.989-6.114,3.561,3.561,0,0,0,1.5-4.286a3.561,3.561,0,0,0,.489,1.828A3.631,3.631,0,0,0,3.315-1.132a3.561,3.561,0,0,0,1.828.489,3.561,3.561,0,0,0,1.828-.489A3.631,3.631,0,0,0,8.3-2.458Zm1.3-4.41a5.031,5.031,0,0,1,.69,2.581A5.031,5.031,0,0,1,9.6-1.7,5.12,5.12,0,0,1,7.724.167a5.031,5.031,0,0,1-2.581.69A5.031,5.031,0,0,1,2.561.167,5.12,5.12,0,0,1,.69-1.7,5.031,5.031,0,0,1,0-4.286,5.031,5.031,0,0,1,.69-6.867,5.12,5.12,0,0,1,2.561-8.739a5.031,5.031,0,0,1,2.581-.69,5.031,5.031,0,0,1,2.581.69A5.12,5.12,0,0,1,9.6-6.867Z" transform="translate(0 9.429)" fill="#777"/>
</svg>
