<svg xmlns="http://www.w3.org/2000/svg" width="11" height="11.807" viewBox="0 0 11 11.807">
  <path id="Forma_1" data-name="Forma 1" d="M2.187,11.807a.462.462,0,0,1-.46-.422L.962,2.7H0V1.773h3.22v-1A.771.771,0,0,1,3.989,0h3.02a.771.771,0,0,1,.77.771v1H11V2.7H10.02l-.764,8.688a.462.462,0,0,1-.46.422Zm.423-.925H8.373L9.092,2.7H1.89Zm4.245-9.11V.925H4.143v.848ZM6.624,9.509l.2-5.472.924.034-.2,5.472ZM3.25,4.071l.924-.034.2,5.472-.924.034ZM5.037,9.526V4.054h.924V9.526Z" transform="translate(0.001)" fill="#111"/>
</svg>
