<svg xmlns="http://www.w3.org/2000/svg" width="12" height="9.117" viewBox="0 0 12 9.117">
  <path id="Forma_1" data-name="Forma 1" d="M1.572,9.26a1.049,1.049,0,0,1-.757-.3A.981.981,0,0,1,.5,8.224V3.083a3.517,3.517,0,0,0,.676.563Q3.6,5.239,4.5,5.88q.382.272.619.424a3.879,3.879,0,0,0,.633.311,1.985,1.985,0,0,0,.737.159h.014a1.984,1.984,0,0,0,.736-.159A3.873,3.873,0,0,0,7.877,6.3q.238-.152.619-.424,1.138-.8,3.335-2.234a3.659,3.659,0,0,0,.67-.563V8.224a.981.981,0,0,1-.315.732,1.049,1.049,0,0,1-.757.3ZM6.5,5.945H6.494a1.1,1.1,0,0,1-.335-.058,2.055,2.055,0,0,1-.385-.175q-.2-.116-.348-.21t-.362-.246l-.285-.2Q4.17,4.643,3.025,3.876T1.652,2.953a3.274,3.274,0,0,1-.784-.748A1.485,1.485,0,0,1,.5,1.322,1.279,1.279,0,0,1,.778.48.971.971,0,0,1,1.572.143h9.857a1.053,1.053,0,0,1,.753.3.977.977,0,0,1,.318.732,1.672,1.672,0,0,1-.328.978,3.128,3.128,0,0,1-.817.8l-3.134,2.1-.285.2q-.218.152-.362.246t-.348.21a2.055,2.055,0,0,1-.385.175,1.1,1.1,0,0,1-.335.058Z" transform="translate(-0.5 -0.143)"/>
</svg>
