<svg xmlns="http://www.w3.org/2000/svg" width="13" height="13" viewBox="0 0 13 13">
  <path id="Forma_1" data-name="Forma 1" d="M12.057,3.167A6.472,6.472,0,0,0,9.692.8,6.359,6.359,0,0,0,6.429-.071,6.358,6.358,0,0,0,3.166.8,6.471,6.471,0,0,0,.8,3.167,6.358,6.358,0,0,0-.071,6.429,6.36,6.36,0,0,0,.8,9.692a6.473,6.473,0,0,0,2.366,2.366,6.359,6.359,0,0,0,3.263.872,6.359,6.359,0,0,0,3.263-.872,6.473,6.473,0,0,0,2.366-2.366,6.36,6.36,0,0,0,.872-3.263A6.359,6.359,0,0,0,12.057,3.167ZM5.346,1.554a.261.261,0,0,1,.271-.271H7.242a.261.261,0,0,1,.271.271V2.909a.261.261,0,0,1-.271.271H5.617a.261.261,0,0,1-.271-.271ZM8.6,10.492a.261.261,0,0,1-.271.271H4.533a.261.261,0,0,1-.271-.271V9.138a.261.261,0,0,1,.271-.271h.813V6.159H4.533a.261.261,0,0,1-.271-.271V4.534a.261.261,0,0,1,.271-.271H7.242a.261.261,0,0,1,.271.271V8.867h.812a.261.261,0,0,1,.271.271v1.354Z" transform="translate(0.071 0.07)" fill="#111"/>
</svg>
