<svg xmlns="http://www.w3.org/2000/svg" xmlns:xlink="http://www.w3.org/1999/xlink" width="1920" height="1080" viewBox="0 0 1920 1080">
  <defs>
    <clipPath id="clip-Web_1920_1">
      <rect width="1920" height="1080"/>
    </clipPath>
  </defs>
  <g id="Web_1920_1" data-name="Web 1920 – 1" clip-path="url(#clip-Web_1920_1)">
    <rect width="1920" height="1080" fill="#fff"/>
    <path id="link" d="M345.582,272.148l1.948,3.374a1.113,1.113,0,0,0,1.521.407l.482-.278-.557-.964h0a.557.557,0,0,1-.76-.2l-1.391-2.41a.556.556,0,0,1,.2-.76l1.928-1.113a.556.556,0,0,1,.76.2l1.392,2.41a.557.557,0,0,1-.2.76l.557.964.482-.278a1.113,1.113,0,0,0,.407-1.521l-1.948-3.374a1.113,1.113,0,0,0-1.521-.407l-2.892,1.67A1.113,1.113,0,0,0,345.582,272.148Zm6.585,5.839a.557.557,0,0,0,.2-.76l-2.226-3.856a.557.557,0,1,0-.964.557l2.226,3.856A.557.557,0,0,0,352.167,277.987Zm.408-1.521h0a.556.556,0,0,1,.76.2l1.391,2.41a.557.557,0,0,1-.2.76l-1.928,1.113a.556.556,0,0,1-.76-.2l-1.392-2.41a.557.557,0,0,1,.2-.76h0l-.557-.964-.482.278a1.113,1.113,0,0,0-.408,1.521l1.948,3.374a1.113,1.113,0,0,0,1.521.407l2.892-1.67a1.113,1.113,0,0,0,.407-1.521l-1.948-3.374a1.113,1.113,0,0,0-1.521-.408l-.482.278Z" transform="translate(372.007 434.438) rotate(-14)" fill="#777"/>
  </g>
</svg>
