<svg xmlns="http://www.w3.org/2000/svg" width="17.601" height="12.604" viewBox="0 0 17.601 12.604">
  <path id="Forma_1" data-name="Forma 1" d="M1.37,12A1.368,1.368,0,0,1,0,10.641V1.359A1.367,1.367,0,0,1,1.37,0H15.63A1.367,1.367,0,0,1,17,1.359v9.282A1.368,1.368,0,0,1,15.63,12ZM.548,1.359v9.282a.821.821,0,0,0,.822.817H15.63a.821.821,0,0,0,.822-.817V1.359a.808.808,0,0,0-.063-.313L10.814,5.875,13.952,8.8a.27.27,0,0,1,.012.384.276.276,0,0,1-.388.012L10.422,6.256,10.4,6.233l-.894.774a1.584,1.584,0,0,1-2.013,0L6.6,6.233l-.022.023L3.423,9.2a.273.273,0,0,1-.188.074.275.275,0,0,1-.2-.086A.271.271,0,0,1,3.047,8.8L6.186,5.875.611,1.045A.807.807,0,0,0,.548,1.359ZM7.854,6.6a1.031,1.031,0,0,0,1.292,0L16.022.642a.822.822,0,0,0-.392-.1H1.37a.821.821,0,0,0-.391.1Z" transform="translate(0.3 0.302)" fill="#777" stroke="#777" stroke-width="0.6"/>
</svg>
