<svg xmlns="http://www.w3.org/2000/svg" width="20.156" height="17.119" viewBox="0 0 20.156 17.119">
  <path id="Forma_1" data-name="Forma 1" d="M3.4,17.05a.714.714,0,0,1-.4-.642V14.063H.71A.715.715,0,0,1,0,13.352V.712A.7.7,0,0,1,.71,0H19.443a.7.7,0,0,1,.711.712V13.369a.7.7,0,0,1-.711.712H7.961l-3.816,2.9a.758.758,0,0,1-.434.139A.68.68,0,0,1,3.4,17.05ZM1.421,12.64h2.29a.7.7,0,0,1,.711.712v1.615l2.862-2.188a.758.758,0,0,1,.434-.139h11V1.424H1.421ZM4.96,9.462a.712.712,0,0,1,0-1.424H15.194a.712.712,0,0,1,0,1.424Zm0-3.438a.712.712,0,0,1,0-1.424H15.194a.712.712,0,0,1,0,1.424Z" transform="translate(0.001)" fill="#777"/>
</svg>
