<svg xmlns="http://www.w3.org/2000/svg" width="10" height="12.469" viewBox="0 0 10 12.469">
  <path id="Forma_1" data-name="Forma 1" d="M4.254,11.9a1.524,1.524,0,0,1,.025-.276H.755a.247.247,0,0,1-.218-.141.3.3,0,0,1,0-.278L1.4,9.621A5.673,5.673,0,0,0,2.425,7.2V5.812a3.724,3.724,0,0,1,2.08-3.7V2.107C4.5,1.5,4.98.815,5.531.815S6.5,1.5,6.5,2.107v.007c1.3.493,2.021,1.964,2.021,3.7V7.2A5.789,5.789,0,0,0,9.61,9.621l.859,1.584a.3.3,0,0,1,0,.278.247.247,0,0,1-.218.141H6.73a1.524,1.524,0,0,1,.025.276A1.325,1.325,0,0,1,5.5,13.285,1.324,1.324,0,0,1,4.254,11.9Zm.5,0a.794.794,0,0,0,.75.831.794.794,0,0,0,.75-.831.911.911,0,0,0-.043-.276H4.8A.919.919,0,0,0,4.756,11.9Z" transform="translate(-0.505 -0.815)"/>
</svg>
