<svg xmlns="http://www.w3.org/2000/svg" width="11.903" height="11.905" viewBox="0 0 11.903 11.905">
  <path id="Forma_1" data-name="Forma 1" d="M.465,11.891A.465.465,0,0,1,0,11.426V9.379A.465.465,0,0,1,.136,9.05L4.143,5.041c-.111-.2-.216-.415-.311-.63A1.862,1.862,0,0,1,4.22,2.347L6.046.529A1.869,1.869,0,0,1,8.029.109a6.626,6.626,0,0,1,2.283,1.434,6.787,6.787,0,0,1,1.463,2.3,1.854,1.854,0,0,1-.418,1.992L9.508,7.676a1.863,1.863,0,0,1-2.036.4,6.964,6.964,0,0,1-.966-.493.465.465,0,0,1,.486-.793,6.033,6.033,0,0,0,.837.427.936.936,0,0,0,1.023-.2L10.7,5.177a.924.924,0,0,0,.208-.993A5.853,5.853,0,0,0,9.656,2.2,5.692,5.692,0,0,0,7.7.978a.938.938,0,0,0-.995.211L4.876,3.007a.926.926,0,0,0-.194,1.026,7.532,7.532,0,0,0,.44.844.465.465,0,0,1-.069.57L.93,9.572v1.389H2.046v-.837a.465.465,0,0,1,.465-.465h.837V8.821a.465.465,0,0,1,.465-.465h1.3a.465.465,0,0,1,0,.93H4.278v.837a.465.465,0,0,1-.465.465H2.976v.837a.465.465,0,0,1-.465.465ZM7.718,3.242a.744.744,0,1,1,.744.744A.744.744,0,0,1,7.718,3.242Z" transform="translate(0 0.014)"/>
</svg>
