<svg xmlns="http://www.w3.org/2000/svg" width="21.138" height="21.819" viewBox="0 0 21.138 21.819">
  <path id="Shape_1" data-name="Shape 1" d="M9.314,18.128a3.511,3.511,0,1,1,3.511,3.51A3.511,3.511,0,0,1,9.314,18.128Zm2.39,1.045c-.036.112-.067.228-.1.344-.045.156-.027.192.121.263a2.106,2.106,0,0,0,.594.17c.161.027.17.036.17.2v.228c0,.094.045.152.143.152s.223,0,.335,0a.126.126,0,0,0,.139-.143c0-.107,0-.21,0-.313a.163.163,0,0,1,.143-.188,1.111,1.111,0,0,0,.585-.375,1.05,1.05,0,0,0-.331-1.594,4.985,4.985,0,0,0-.59-.268,1.427,1.427,0,0,1-.322-.183.282.282,0,0,1,.071-.5.593.593,0,0,1,.2-.04,1.475,1.475,0,0,1,.741.147c.116.054.156.036.2-.085s.08-.259.116-.388a.135.135,0,0,0-.089-.183,1.949,1.949,0,0,0-.469-.138c-.214-.031-.214-.031-.214-.246,0-.3,0-.3-.3-.3h-.13c-.143,0-.165.027-.17.17v.192c0,.188,0,.183-.183.25a1.006,1.006,0,0,0-.737.933.949.949,0,0,0,.54.915,5.091,5.091,0,0,0,.674.3.907.907,0,0,1,.246.143.335.335,0,0,1-.08.589.8.8,0,0,1-.433.058,1.917,1.917,0,0,1-.661-.2.266.266,0,0,0-.107-.036C11.753,19.052,11.729,19.089,11.7,19.173Zm-5.65-.223a1.367,1.367,0,0,1-1.367-1.366V8.023A1.367,1.367,0,0,1,6.054,6.657H19.592a1.367,1.367,0,0,1,1.367,1.366v9.556a1.367,1.367,0,0,1-1.367,1.366H17.774a4.958,4.958,0,0,0,.067-.817,5.171,5.171,0,0,0-.085-.915h1.469V12.64H6.425v4.577H7.89a5.169,5.169,0,0,0-.085.915,4.961,4.961,0,0,0,.067.817Zm.371-9.127h12.8V8.389H6.425ZM2.874,12.136.623,11.162A1.347,1.347,0,0,1-.061,9.381L3.847.62A1.348,1.348,0,0,1,5.63-.063L16.791,4.884a.292.292,0,0,1-.121.558v0H6.058A2.583,2.583,0,0,0,3.477,8.028v3.72a.428.428,0,0,1-.6.389Z" transform="translate(0.179 0.181)" fill="#777"/>
</svg>
