<svg xmlns="http://www.w3.org/2000/svg" width="12" height="12.005" viewBox="0 0 12 12.005">
  <path id="Forma_1" data-name="Forma 1" d="M12.3,9.475a.581.581,0,0,1-.178.509l-1.69,1.679a.952.952,0,0,1-.3.216,1.233,1.233,0,0,1-.362.114L9.7,12q-.063.006-.165.006a5.854,5.854,0,0,1-.781-.083,5.928,5.928,0,0,1-1.321-.407,11.088,11.088,0,0,1-1.772-.973,13.219,13.219,0,0,1-2.109-1.78A13.93,13.93,0,0,1,2.073,7.084,11.96,11.96,0,0,1,1.133,5.6,7.985,7.985,0,0,1,.6,4.369a6.549,6.549,0,0,1-.241-.954,3.153,3.153,0,0,1-.051-.63Q.32,2.557.32,2.531a1.237,1.237,0,0,1,.114-.362.953.953,0,0,1,.216-.3L2.34.178A.559.559,0,0,1,2.746,0a.474.474,0,0,1,.292.1.884.884,0,0,1,.216.235L4.614,2.913a.619.619,0,0,1,.064.445.793.793,0,0,1-.216.407l-.622.623a.212.212,0,0,0-.044.083.314.314,0,0,0-.019.1A2.3,2.3,0,0,0,4,5.176a5.606,5.606,0,0,0,.47.744,8.258,8.258,0,0,0,.9,1.011,8.416,8.416,0,0,0,1.016.909,5.867,5.867,0,0,0,.743.477,1.976,1.976,0,0,0,.457.184l.159.032a.3.3,0,0,0,.083-.019.212.212,0,0,0,.083-.045l.724-.738a.778.778,0,0,1,.534-.2.663.663,0,0,1,.343.076H9.53l2.452,1.45A.64.64,0,0,1,12.3,9.475Z" transform="translate(-0.305 0)" fill="#777"/>
</svg>
