<svg xmlns="http://www.w3.org/2000/svg" width="20.625" height="17.945" viewBox="0 0 20.625 17.945">
  <path id="Shape_1" data-name="Shape 1" d="M3.686,14.52l-.837-3.842H6.171l.837,3.842ZM15.343,13.37A23.921,23.921,0,0,0,9.212,9.928c-.423-.162-.842-.308-1.246-.435V3.88c.414-.132.833-.278,1.246-.435A23.921,23.921,0,0,0,15.344,0V13.372ZM9.957,4.433c-.292.112-.582.213-.865.3v3.9c.289.092.58.193.865.3a16.559,16.559,0,0,1,4.262,2.393V2.04A16.587,16.587,0,0,1,9.957,4.433ZM5.939,9.608H1.426v-.95H0V4.714H1.426v-.95H6.9V9.608Zm10.475-.427V4.191H16.7a1.3,1.3,0,0,1,1.3,1.3V7.879a1.3,1.3,0,0,1-1.3,1.3Z" transform="matrix(0.978, -0.208, 0.208, 0.978, 0, 3.742)" fill="#777"/>
</svg>
