<svg xmlns="http://www.w3.org/2000/svg" width="13" height="13" viewBox="0 0 13 13">
  <path id="Forma_1" data-name="Forma 1" d="M13,6.5A6.5,6.5,0,1,0,2.11,11.288l-.006.005.211.178c.014.012.029.021.042.032.112.093.228.181.346.266l.116.082q.189.13.388.248l.087.05c.145.082.293.16.444.232l.034.015a6.442,6.442,0,0,0,1.572.5l.043.008c.171.03.344.053.519.069l.064,0c.174.014.351.024.529.024s.352-.009.525-.023l.066,0q.261-.024.515-.068L7.65,12.9A6.441,6.441,0,0,0,9.2,12.41l.054-.025q.219-.1.428-.221l.1-.06c.127-.075.252-.153.374-.236.044-.03.087-.061.13-.092.1-.075.206-.152.3-.232.022-.018.046-.033.067-.051l.216-.181-.006-.005A6.483,6.483,0,0,0,13,6.5ZM.473,6.5A6.027,6.027,0,1,1,10.5,11.006a1.771,1.771,0,0,0-.211-.127l-2-1a.524.524,0,0,1-.291-.471v-.7c.046-.057.1-.122.146-.193A4.817,4.817,0,0,0,8.758,7.3a.858.858,0,0,0,.493-.777V5.689a.86.86,0,0,0-.21-.56v-1.1A1.906,1.906,0,0,0,8.6,2.64a2.661,2.661,0,0,0-2.1-.749,2.661,2.661,0,0,0-2.1.749,1.907,1.907,0,0,0-.445,1.386v1.1a.861.861,0,0,0-.21.56v.838a.86.86,0,0,0,.317.667A4.441,4.441,0,0,0,4.8,8.7v.684a.527.527,0,0,1-.275.463L2.654,10.87a1.708,1.708,0,0,0-.178.113A6.013,6.013,0,0,1,.473,6.5Z" fill="#111"/>
</svg>
